<svg width="32" height="32" viewBox="0 0 32 32" fill="none" xmlns="http://www.w3.org/2000/svg">
<rect width="32" height="32" rx="6" fill="url(#paint0_linear_260_210)"/>
<path d="M16.0001 4.06219C15.3839 4.72016 15.0083 5.58085 15.0083 6.52612C15.0447 8.60137 15.3151 10.6741 15.3389 12.745C15.3878 14.6791 14.7716 16.495 14.0219 18.2674C13.772 18.7568 13.5022 19.2357 13.2318 19.7158L12.4384 19.5653C11.7224 19.431 11.2569 18.7761 11.4004 18.1026C11.5253 17.5137 12.0768 17.1014 12.6916 17.1014L12.9812 17.1306L12.3353 12.056C12.1244 9.79851 10.8853 7.81468 9.06254 6.52737C8.74915 6.30598 8.41659 6.10324 8.0708 5.92476V23.9409H12.4926C12.8232 25.6262 13.811 27.1001 15.1994 28.1076C15.5293 28.3215 15.8063 28.6039 16.0053 28.9335C16.2037 28.6039 16.4807 28.3215 16.8113 28.1076C18.1997 27.0976 19.1875 25.6269 19.5181 23.9409H23.9399V5.92476C23.5941 6.10324 23.2615 6.30598 22.9482 6.52737C21.1234 7.81655 19.887 9.79851 19.6754 12.056L19.0295 17.1306L19.3191 17.1014C19.9339 17.1039 20.4853 17.5131 20.6103 18.1026C20.7531 18.7761 20.2877 19.4304 19.5723 19.5653L18.7789 19.7158C18.5085 19.2363 18.2381 18.7575 17.9888 18.2674C17.2384 16.4963 16.6222 14.6804 16.6711 12.745C16.6949 10.6679 16.9653 8.59702 17.0017 6.52612C17.0017 5.58085 16.6262 4.72264 16.01 4.06219H16.0001ZM9.38849 8.52115C10.244 9.4658 10.8186 10.6418 10.9885 11.9372L11.5174 16.1225C10.8397 16.4397 10.3273 17.0218 10.1329 17.7264H9.38386V8.52239L9.38849 8.52115ZM22.6116 8.52115V17.7251H21.8625C21.6695 17.0211 21.1558 16.4391 20.4781 16.1213L21.007 11.936C21.1782 10.6418 21.7528 9.46456 22.607 8.51928L22.6116 8.52115ZM16.0001 16.9353C16.3551 18.028 16.8437 19.0684 17.4513 20.0311C16.8734 20.1959 16.371 20.5168 16.0001 20.949C15.6291 20.5168 15.1267 20.1965 14.5488 20.0305C15.1564 19.0659 15.645 18.028 16.0001 16.9353ZM9.38849 18.9714H10.1376C10.3736 19.8302 11.0863 20.5081 11.9888 20.745L12.6242 20.8812C12.4543 21.4608 12.361 22.069 12.361 22.7034H9.38584V18.972L9.38849 18.9714ZM21.8645 18.9714H22.6136V22.7027H19.6384C19.6384 22.0721 19.5452 21.4608 19.3753 20.8806L20.0106 20.7444C20.9164 20.5075 21.6285 19.829 21.8619 18.9708L21.8645 18.9714ZM13.9174 21.1667C14.7194 21.273 15.3376 21.9192 15.3376 22.7021H13.6847C13.6847 22.1692 13.7687 21.6549 13.9174 21.1667ZM18.0807 21.1667C18.2295 21.6549 18.3134 22.1679 18.3134 22.7021H16.6606C16.6606 21.9179 17.2787 21.273 18.0807 21.1667ZM13.8361 23.9465H15.3389V26.5647C14.6116 25.8464 14.0827 24.9478 13.8361 23.9465ZM16.6612 23.9465H18.164C17.9207 24.9478 17.3905 25.8476 16.6612 26.5647V23.9465Z" fill="#FED500"/>
<defs>
<linearGradient id="paint0_linear_260_210" x1="16" y1="0" x2="16" y2="32" gradientUnits="userSpaceOnUse">
<stop stop-color="#3D3D3D"/>
<stop offset="1" stop-color="#0A0A0A"/>
</linearGradient>
</defs>
</svg>
